{
	"asset":{
		"generator":"Khronos glTF Blender I/O v3.6.27",
		"version":"2.0"
	},
	"scene":0,
	"scenes":[
		{
			"name":"Scene",
			"nodes":[
				5,
				6
			]
		}
	],
	"nodes":[
		{
			"mesh":0,
			"name":"Sailboat_01 - Default_0",
			"translation":[
				0,
				-4.802441253559664e-06,
				0
			]
		},
		{
			"children":[
				0
			],
			"name":"Object_4",
			"translation":[
				0,
				31.549135208129883,
				7.092300891876221
			]
		},
		{
			"children":[
				1
			],
			"name":"Sailboat",
			"rotation":[
				-0.70710688829422,
				0,
				0,
				0.7071066498756409
			],
			"scale":[
				1.947501301765442,
				1.947501540184021,
				1.947501540184021
			],
			"translation":[
				0.3183116912841797,
				0.5048723220825195,
				-0.3223142623901367
			]
		},
		{
			"children":[
				2
			],
			"name":"RootNode"
		},
		{
			"children":[
				3
			],
			"name":"cb932ba4034643229ae0ba7c02f6db1f.fbx",
			"rotation":[
				0.70710688829422,
				0,
				0,
				0.7071066498756409
			]
		},
		{
			"children":[
				4
			],
			"name":"Sketchfab_model",
			"rotation":[
				-0.70710688829422,
				0,
				0,
				0.7071066498756409
			],
			"scale":[
				0.0016185322310775518,
				0.0016185322310775518,
				0.0016185322310775518
			]
		},
		{
			"mesh":1,
			"name":"saria.001",
			"scale":[
				0.03200303763151169,
				0.03200303763151169,
				0.03200303763151169
			],
			"translation":[
				-0.0062624504789710045,
				0.38950881361961365,
				0.2204635590314865
			]
		}
	],
	"materials":[
		{
			"name":"01_-_Default",
			"normalTexture":{
				"index":0
			},
			"occlusionTexture":{
				"index":1
			},
			"pbrMetallicRoughness":{
				"baseColorTexture":{
					"index":2
				},
				"metallicRoughnessTexture":{
					"index":1
				}
			}
		}
	],
	"meshes":[
		{
			"name":"Sailboat_01 - Default_0",
			"primitives":[
				{
					"attributes":{
						"POSITION":0,
						"NORMAL":1,
						"TEXCOORD_0":2
					},
					"indices":3,
					"material":0
				}
			]
		},
		{
			"name":"Cylinder.001",
			"primitives":[
				{
					"attributes":{
						"POSITION":4,
						"NORMAL":5,
						"TEXCOORD_0":6
					},
					"indices":7
				}
			]
		}
	],
	"textures":[
		{
			"sampler":0,
			"source":0
		},
		{
			"sampler":0,
			"source":1
		},
		{
			"sampler":0,
			"source":2
		}
	],
	"images":[
		{
			"mimeType":"image/png",
			"name":"Image_2",
			"uri":"Image_2.png"
		},
		{
			"mimeType":"image/png",
			"name":"Image_1",
			"uri":"Image_1.png"
		},
		{
			"mimeType":"image/png",
			"name":"Image_0",
			"uri":"Image_0.png"
		}
	],
	"accessors":[
		{
			"bufferView":0,
			"componentType":5126,
			"count":2953,
			"max":[
				129.88937377929688,
				391.4075012207031,
				195.79312133789062
			],
			"min":[
				-129.88934326171875,
				-476.5288391113281,
				-129.49559020996094
			],
			"type":"VEC3"
		},
		{
			"bufferView":1,
			"componentType":5126,
			"count":2953,
			"type":"VEC3"
		},
		{
			"bufferView":2,
			"componentType":5126,
			"count":2953,
			"type":"VEC2"
		},
		{
			"bufferView":3,
			"componentType":5123,
			"count":7011,
			"type":"SCALAR"
		},
		{
			"bufferView":4,
			"componentType":5126,
			"count":19546,
			"max":[
				2.327902317047119,
				100.96935272216797,
				34.651737213134766
			],
			"min":[
				-7.200071334838867,
				-2.61411714553833,
				-34.63037872314453
			],
			"type":"VEC3"
		},
		{
			"bufferView":5,
			"componentType":5126,
			"count":19546,
			"type":"VEC3"
		},
		{
			"bufferView":6,
			"componentType":5126,
			"count":19546,
			"type":"VEC2"
		},
		{
			"bufferView":7,
			"componentType":5123,
			"count":107784,
			"type":"SCALAR"
		}
	],
	"bufferViews":[
		{
			"buffer":0,
			"byteLength":35436,
			"byteOffset":0,
			"target":34962
		},
		{
			"buffer":0,
			"byteLength":35436,
			"byteOffset":35436,
			"target":34962
		},
		{
			"buffer":0,
			"byteLength":23624,
			"byteOffset":70872,
			"target":34962
		},
		{
			"buffer":0,
			"byteLength":14022,
			"byteOffset":94496,
			"target":34963
		},
		{
			"buffer":0,
			"byteLength":234552,
			"byteOffset":108520,
			"target":34962
		},
		{
			"buffer":0,
			"byteLength":234552,
			"byteOffset":343072,
			"target":34962
		},
		{
			"buffer":0,
			"byteLength":156368,
			"byteOffset":577624,
			"target":34962
		},
		{
			"buffer":0,
			"byteLength":215568,
			"byteOffset":733992,
			"target":34963
		}
	],
	"samplers":[
		{
			"magFilter":9729,
			"minFilter":9987
		}
	],
	"buffers":[
		{
			"byteLength":949560,
			"uri":"sailmodel.bin"
		}
	]
}
